<?xml version="1.0" encoding="utf-8"?>
<!-- Generator: Adobe Illustrator 25.2.3, SVG Export Plug-In . SVG Version: 6.00 Build 0)  -->
<svg version="1.1" id="Layer_1" xmlns="http://www.w3.org/2000/svg" xmlns:xlink="http://www.w3.org/1999/xlink" x="0px" y="0px"
	 viewBox="0 0 358.31 358.31" style="enable-background:new 0 0 358.31 358.31;" xml:space="preserve">
<style type="text/css">
	.st0{fill:#FFFFFF;}
	.st1{fill:#231F20;}
	.st2{fill:#FF7500;}
	.st3{fill:#6E3FA3;}
	.st4{fill:#2F2A95;}
</style>
<g>
	<g>
		<g>
			<circle class="st2" cx="318.81" cy="179.15" r="39.5"/>
			<path class="st2" d="M151.22,346.74L151.22,346.74c15.43,15.43,40.44,15.43,55.86,0l69.83-69.83c15.43-15.43,15.43-40.44,0-55.86
				l0,0c-15.43-15.43-40.44-15.43-55.86,0l-69.83,69.83C135.8,306.3,135.8,331.31,151.22,346.74z"/>
		</g>
		<g>
			<circle class="st3" cx="179.15" cy="39.5" r="39.5"/>
			<path class="st3" d="M11.57,207.09L11.57,207.09c15.43,15.43,40.44,15.43,55.86,0l69.83-69.83c15.43-15.43,15.43-40.44,0-55.86
				l0,0c-15.43-15.43-40.44-15.43-55.86,0l-69.83,69.83C-3.86,166.65-3.86,191.66,11.57,207.09z"/>
		</g>
		<g>
			<circle class="st4" cx="109.33" cy="248.98" r="39.5"/>
			<path class="st4" d="M276.91,81.4L276.91,81.4c-15.43-15.43-40.44-15.43-55.86,0l-69.83,69.83c-15.43,15.43-15.43,40.44,0,55.86
				l0,0c15.43,15.43,40.44,15.43,55.86,0l69.83-69.83C292.34,121.83,292.34,96.82,276.91,81.4z"/>
		</g>
	</g>
</g>
</svg>
